<svg width="12" height="13" viewBox="0 0 12 13" fill="none" xmlns="http://www.w3.org/2000/svg">
<path d="M5.99536 3.87109C5.17815 3.87109 4.39441 4.19526 3.81655 4.77227C3.2387 5.34928 2.91406 6.13188 2.91406 6.9479C2.91406 7.76391 3.2387 8.54651 3.81655 9.12352C4.39441 9.70053 5.17815 10.0247 5.99536 10.0247C6.81257 10.0247 7.59631 9.70053 8.17417 9.12352C8.75202 8.54651 9.07666 7.76391 9.07666 6.9479C9.07666 6.13188 8.75202 5.34928 8.17417 4.77227C7.59631 4.19526 6.81257 3.87109 5.99536 3.87109ZM5.99536 8.94608C5.46446 8.94608 4.9553 8.73549 4.57989 8.36063C4.20448 7.98578 3.99358 7.47736 3.99358 6.94723C3.99358 6.4171 4.20448 5.90868 4.57989 5.53382C4.9553 5.15897 5.46446 4.94837 5.99536 4.94837C6.52626 4.94837 7.03542 5.15897 7.41083 5.53382C7.78624 5.90868 7.99714 6.4171 7.99714 6.94723C7.99714 7.47736 7.78624 7.98578 7.41083 8.36063C7.03542 8.73549 6.52626 8.94608 5.99536 8.94608Z" fill="#444444"/>
<path d="M11.6821 3.02864C11.5279 2.63085 11.2921 2.26961 10.99 1.96804C10.6879 1.66646 10.326 1.4312 9.92759 1.27731C9.46135 1.10255 8.9688 1.00805 8.4709 0.997845C7.82919 0.969899 7.62594 0.961914 5.99867 0.961914C4.37139 0.961914 4.16282 0.961914 3.52643 0.997845C3.02891 1.00753 2.53671 1.10205 2.07108 1.27731C1.67255 1.43102 1.31059 1.66622 1.00844 1.96782C0.706289 2.26941 0.47061 2.63075 0.316526 3.02864C0.141474 3.49416 0.0470554 3.98604 0.0373167 4.4832C0.00866281 5.12331 0 5.32626 0 6.95183C0 8.57673 -3.72529e-09 8.78367 0.0373167 9.42045C0.0473123 9.91817 0.14127 10.4092 0.316526 10.8757C0.471042 11.2734 0.70695 11.6346 1.00918 11.9362C1.3114 12.2377 1.6733 12.473 2.07175 12.627C2.5365 12.8088 3.0289 12.9101 3.52777 12.9264C4.16948 12.9544 4.37272 12.963 6 12.963C7.62728 12.963 7.83585 12.963 8.47223 12.9264C8.97008 12.9163 9.46262 12.8221 9.92892 12.6476C10.3272 12.4934 10.689 12.2579 10.9911 11.9563C11.2932 11.6546 11.529 11.2934 11.6835 10.8956C11.8587 10.4299 11.9527 9.9388 11.9627 9.44108C11.9913 8.80097 12 8.59802 12 6.97246C12 5.34689 12 5.14061 11.9627 4.50383C11.9549 3.99964 11.86 3.50057 11.6821 3.02864ZM10.8705 9.37121C10.8662 9.75469 10.7961 10.1346 10.6633 10.4944C10.5632 10.7532 10.41 10.9881 10.2135 11.1842C10.017 11.3803 9.78162 11.5331 9.52243 11.6329C9.16608 11.7649 8.78967 11.8349 8.4096 11.8398C7.77654 11.8691 7.59796 11.8764 5.97468 11.8764C4.35007 11.8764 4.18414 11.8764 3.53909 11.8398C3.15921 11.8352 2.78298 11.7652 2.42692 11.6329C2.16683 11.5337 1.93048 11.3812 1.73316 11.1851C1.53584 10.9889 1.38194 10.7537 1.28143 10.4944C1.15045 10.1385 1.08039 9.76303 1.07419 9.38386C1.04554 8.75173 1.03887 8.5734 1.03887 6.95249C1.03887 5.33092 1.03887 5.16523 1.07419 4.52046C1.0785 4.13721 1.14859 3.75753 1.28143 3.39794C1.48467 2.87294 1.90116 2.45973 2.42692 2.25877C2.78316 2.12712 3.15928 2.05714 3.53909 2.05184C4.17281 2.02322 4.35073 2.01524 5.97468 2.01524C7.59862 2.01524 7.76522 2.01524 8.4096 2.05184C8.7897 2.0564 9.16617 2.12641 9.52243 2.25877C9.7816 2.35877 10.017 2.51176 10.2134 2.70794C10.4099 2.90412 10.5631 3.13914 10.6633 3.39794C10.7942 3.75389 10.8643 4.12932 10.8705 4.50849C10.8992 5.14128 10.9065 5.31894 10.9065 6.94052C10.9065 8.56143 10.9065 8.73576 10.8778 9.37188L10.8705 9.37121Z" fill="#444444"/>
</svg>
