<svg width="13" height="10" viewBox="0 0 13 10" fill="none" xmlns="http://www.w3.org/2000/svg">
<path d="M12.7355 2.37241C12.6616 2.10137 12.517 1.85419 12.3162 1.65547C12.1154 1.45675 11.8654 1.31342 11.5911 1.23976C10.5739 0.963967 6.5045 0.959478 6.5045 0.959478C6.5045 0.959478 2.43578 0.954988 1.41795 1.21859C1.14379 1.29565 0.894302 1.441 0.693428 1.6407C0.492554 1.84039 0.347041 2.08772 0.270859 2.35894C0.00259923 3.36333 9.51671e-07 5.44649 9.51671e-07 5.44649C9.51671e-07 5.44649 -0.0025972 7.53992 0.263714 8.53404C0.413109 9.08369 0.851549 9.5179 1.40885 9.66606C2.43643 9.94185 6.49476 9.94634 6.49476 9.94634C6.49476 9.94634 10.5641 9.95082 11.5813 9.68786C11.8557 9.61432 12.106 9.47133 12.3073 9.27301C12.5086 9.0747 12.6539 8.82794 12.729 8.55713C12.998 7.55339 12.9999 5.47087 12.9999 5.47087C12.9999 5.47087 13.0129 3.3768 12.7355 2.37241V2.37241ZM5.20282 7.37637L5.20607 3.52816L8.58823 5.45547L5.20282 7.37637V7.37637Z" fill="#444444"/>
</svg>
