<svg width="41" height="50" viewBox="0 0 41 50" fill="none" xmlns="http://www.w3.org/2000/svg">
<path d="M20.5222 8.00094C23.8165 7.96627 27.1454 8.88983 30.0689 10.8343C31.8676 12.0307 33.3694 13.5192 34.548 15.1974C38.0827 20.2343 38.7094 26.9912 35.7236 32.7436C31.7445 40.4125 22.6107 43.8609 14.5551 40.7365C6.49958 37.6098 2.08491 28.9014 4.32358 20.5538C4.42758 20.0889 4.89736 19.8041 5.35825 19.9272C5.81913 20.0521 6.08491 20.5334 5.94402 20.9898C3.92491 28.5196 7.89291 36.3458 15.1636 39.1676C22.432 41.9894 30.64 38.8921 34.2329 31.9707C37.8231 25.0498 35.6311 16.5498 29.14 12.2303C22.948 8.11205 14.7631 9.0725 9.68669 14.3667H12.1747C12.6454 14.3574 13.0289 14.7347 13.0289 15.2049C13.0289 15.6752 12.6454 16.0543 12.1747 16.0454H7.59425C7.13158 16.0454 6.75647 15.6681 6.75647 15.2049V10.6254C6.74713 10.1516 7.13336 9.76405 7.60802 9.77205C8.07069 9.77916 8.44402 10.1609 8.43425 10.6254V13.2436C11.6707 9.85072 16.064 8.04716 20.5222 8.00094Z" fill="black"/>
<path d="M20.6845 16.5152C25.3276 16.5152 29.0707 20.2552 29.0707 24.8947C29.0707 29.5316 25.3276 33.2725 20.6845 33.2725C16.0431 33.2725 12.3 29.5316 12.3 24.8947C12.3 20.2552 16.0431 16.5152 20.6845 16.5152ZM20.6845 14.8343C15.136 14.8343 10.6196 19.3481 10.6196 24.8943C10.6196 30.4387 15.136 34.9525 20.6845 34.9525C26.2356 34.9525 30.7511 30.4387 30.7511 24.8943C30.7516 19.3485 26.2356 14.8343 20.6845 14.8343Z" fill="black"/>
<path d="M21.0871 18.9596C20.6262 18.9667 20.2565 19.3458 20.2609 19.8089V21.0289C20.1525 21.0427 20.0431 21.0569 19.9369 21.0774C18.9716 21.2689 18.2285 21.8436 17.9022 22.5934C17.576 23.3432 17.7009 24.2649 18.272 24.9036C18.844 25.5418 19.784 25.8663 20.9249 25.7996C21.6982 25.7534 22.0151 25.9823 22.1382 26.1467C22.2631 26.3107 22.2702 26.4792 22.152 26.6814C22.048 26.8592 21.848 27.1072 21.3507 27.2321C20.8534 27.3569 19.9854 27.3481 18.5911 26.7689C18.1605 26.5841 17.6605 26.7854 17.4827 27.2201C17.3022 27.6538 17.5129 28.1489 17.948 28.3223C18.8276 28.6854 19.5911 28.8801 20.2605 28.9467V29.9769C20.2534 30.4472 20.6311 30.8338 21.1009 30.8338C21.5707 30.8338 21.9507 30.4472 21.9414 29.9769V28.8058C22.7858 28.5418 23.3329 27.9956 23.6054 27.5281C24.0342 26.7921 24.008 25.8334 23.476 25.1321C22.9458 24.4298 21.9854 24.0529 20.8231 24.1205C20.0454 24.1689 19.68 23.9516 19.5271 23.7801C19.376 23.6112 19.3578 23.4561 19.4414 23.2614C19.5271 23.0667 19.7445 22.8263 20.2654 22.7241C20.7862 22.6205 21.6151 22.6849 22.7498 23.2036C23.1707 23.3961 23.6707 23.2107 23.8627 22.7867C24.0574 22.3654 23.8698 21.8654 23.4485 21.6734C22.9165 21.4303 22.4138 21.2587 21.9414 21.1498V19.8072C21.9485 19.3343 21.5622 18.9494 21.0871 18.9596Z" fill="black"/>
</svg>
