<svg width="40" height="49" viewBox="0 0 40 49" fill="none" xmlns="http://www.w3.org/2000/svg">
<path d="M9.17481 18.3108H32.7598C33.7188 18.3108 34.4706 19.0617 34.4706 20.0277V33.5121C34.4706 34.4782 33.7188 35.229 32.7598 35.229H9.17481C8.21324 35.229 7.46617 34.4782 7.46617 33.5121V20.0282C7.46661 19.0617 8.21367 18.3108 9.17481 18.3108ZM5.06941 13.6447H29.2958C30.0814 13.6447 30.6837 14.2505 30.6837 15.035V16.6639H9.17481C7.33487 16.6639 5.82774 18.1766 5.82774 20.0282V30.5629H5.06941C4.28421 30.5629 3.67927 29.958 3.67927 29.1748V15.035C3.67927 14.2501 4.28421 13.6447 5.06941 13.6447ZM5.06941 12C3.40844 12 2.04041 13.3655 2.04041 15.035V29.1748C2.04041 30.8443 3.40801 32.2098 5.06941 32.2098H5.82774V33.5125C5.82774 35.3606 7.33531 36.8741 9.17481 36.8741H32.7598C34.5993 36.8741 36.1069 35.3606 36.1069 33.5125V20.0282C36.1069 18.177 34.5993 16.6639 32.7598 16.6639H32.32V15.035C32.32 13.3655 30.9567 12 29.2953 12H5.06941Z" fill="black"/>
<path d="M9.93791 31.2228C9.48204 31.2158 9.10764 31.5856 9.10764 32.0464C9.10764 32.5047 9.48204 32.8749 9.93791 32.8679H13.0185C13.4769 32.8749 13.8496 32.5051 13.8496 32.0464C13.8496 31.5861 13.4769 31.2163 13.0185 31.2228H9.93791Z" fill="black"/>
<path d="M16.2659 31.2228C15.8078 31.2158 15.4356 31.5856 15.4356 32.0464C15.4356 32.5047 15.8078 32.8749 16.2659 32.8679H19.343C19.801 32.8749 20.1732 32.5051 20.1732 32.0464C20.1732 31.5861 19.801 31.2163 19.343 31.2228H16.2659Z" fill="black"/>
<path d="M22.5904 31.2228C22.1345 31.2158 21.7597 31.5856 21.7597 32.0464C21.7597 32.5047 22.1345 32.8749 22.5904 32.8679H25.6709C26.1264 32.8749 26.5012 32.5051 26.5012 32.0464C26.5012 31.5861 26.1264 31.2163 25.6709 31.2228H22.5904Z" fill="black"/>
<path d="M28.9166 31.2228C28.4607 31.2158 28.0859 31.5856 28.0859 32.0464C28.0859 32.5047 28.4607 32.8749 28.9166 32.8679H31.995C32.4509 32.8749 32.8257 32.5051 32.8257 32.0464C32.8257 31.5861 32.4509 31.2163 31.995 31.2228H28.9166Z" fill="black"/>
<path d="M11.0936 22.0857H13.4609C13.6659 22.0857 13.8063 22.2286 13.8063 22.4346V24.7988C13.8063 25.0053 13.6659 25.1455 13.4609 25.1455H11.0936C10.8882 25.1455 10.7487 25.0053 10.7487 24.7988V22.4346C10.7482 22.2286 10.8882 22.0857 11.0936 22.0857ZM11.0936 20.4389C10.0077 20.4389 9.10981 21.3462 9.10981 22.435V24.7992C9.10981 25.8907 10.0077 26.7932 11.0936 26.7932H13.4609C14.5442 26.7932 15.4447 25.8912 15.4447 24.7992V22.435C15.4447 21.3462 14.5442 20.4389 13.4609 20.4389H11.0936Z" fill="black"/>
</svg>
