<svg width="46" height="56" viewBox="0 0 46 56" fill="none" xmlns="http://www.w3.org/2000/svg">
<path d="M26.9883 37.1852C27.2713 37.1852 27.5998 37.2031 27.9543 37.221C28.2873 37.237 28.6543 37.2524 29.0353 37.2166L32.4778 45.1367H25.0553L23.3963 42.0848C23.0368 41.4293 22.0918 41.4293 21.7353 42.0848L20.0743 45.1367H12.6523L16.0978 37.2166C16.4883 37.2554 16.8633 37.237 17.2043 37.221C17.9123 37.1852 18.5198 37.1538 18.8653 37.2469C19.2148 37.3405 19.7228 37.67 20.3183 38.0503C20.9123 38.4341 21.6308 38.8931 22.5788 38.8931C23.5268 38.8931 24.2478 38.4341 24.8413 38.0503C25.4353 37.6695 25.9458 37.3405 26.2923 37.2469V37.2425C26.4668 37.1981 26.7038 37.1822 26.9883 37.1852ZM23.8163 10.4212C24.3553 10.7691 24.9698 11.2435 25.8058 11.467C26.6418 11.69 27.4103 11.583 28.0508 11.5526C28.6883 11.5188 29.1523 11.5626 29.3918 11.6995C29.6338 11.8399 29.9023 12.2162 30.1938 12.7807C30.4858 13.3491 30.7778 14.0694 31.3893 14.6782C32.0043 15.2875 32.7233 15.5782 33.2908 15.8684C33.8613 16.1591 34.2408 16.4259 34.3818 16.6673C34.5203 16.9057 34.5613 17.3642 34.5283 17.9994C34.4968 18.637 34.3878 19.4051 34.6143 20.2369C34.8378 21.0692 35.3173 21.6784 35.6663 22.2155C36.0128 22.7502 36.2053 23.1748 36.2053 23.4495C36.2053 23.7243 36.0128 24.1444 35.6663 24.6815C35.3178 25.2151 34.8383 25.8244 34.6143 26.6567C34.3898 27.489 34.4973 28.2591 34.5283 28.8942C34.5613 29.5319 34.5203 29.9913 34.3818 30.2298C34.2413 30.4687 33.8613 30.7355 33.2908 31.0252C32.7233 31.3159 32.0048 31.6086 31.3893 32.2179C30.7778 32.8272 30.4858 33.5455 30.1938 34.1134C29.9108 34.6655 29.6498 35.0313 29.4123 35.1762L29.0978 35.2932C28.8398 35.3504 28.4903 35.3653 28.0508 35.3449C27.4103 35.3111 26.6443 35.205 25.8058 35.4281C24.9698 35.6516 24.3558 36.1259 23.8163 36.4729C23.2793 36.8178 22.8573 37.0125 22.5788 37.0125C22.3023 37.0125 21.8808 36.8178 21.3413 36.4729C20.8053 36.1259 20.1908 35.6516 19.3548 35.4281C18.5158 35.205 17.7473 35.3116 17.1098 35.3449C16.6408 35.3683 16.2708 35.3504 16.0083 35.2827L15.7583 35.1896C15.5208 35.0473 15.2533 34.6759 14.9643 34.1139C14.6723 33.5455 14.3803 32.8277 13.7688 32.2184C13.1563 31.6091 12.4378 31.3164 11.8673 31.0257C11.2968 30.7355 10.9173 30.4692 10.7783 30.2303C10.6408 29.9918 10.5988 29.5324 10.6298 28.8947C10.6638 28.2596 10.7703 27.4925 10.5468 26.6572C10.3233 25.8249 9.84078 25.2156 9.49478 24.682C9.14528 24.1449 8.95578 23.7253 8.95578 23.45C8.95578 23.1753 9.14528 22.7506 9.49478 22.216C9.84028 21.6789 10.3228 21.0697 10.5468 20.2374C10.7703 19.4061 10.6638 18.6405 10.6298 18.0028C10.5983 17.3677 10.6403 16.9062 10.7783 16.6683C10.9168 16.4264 11.2968 16.1601 11.8673 15.8694C12.4378 15.5792 13.1563 15.2885 13.7688 14.6792C14.3803 14.0704 14.6723 13.3501 14.9643 12.7817C15.2553 12.2167 15.5268 11.8404 15.7663 11.7005C16.0058 11.5636 16.4693 11.5193 17.1103 11.5536C17.7478 11.584 18.5193 11.691 19.3553 11.468C20.1913 11.2445 20.8053 10.7701 21.3418 10.4222C21.8808 10.0777 22.3028 9.88309 22.5793 9.88309C22.8573 9.8826 23.2793 10.0767 23.8163 10.4212ZM22.5788 8C21.6308 8 20.9118 8.45845 20.3183 8.84274C19.7228 9.22652 19.2148 9.55854 18.8653 9.65113C18.5198 9.74222 17.9123 9.70837 17.2043 9.67253C16.4978 9.63868 15.6413 9.59687 14.8213 10.0693C14.0008 10.5412 13.6103 11.2983 13.2873 11.9255C12.9648 12.5527 12.6858 13.0948 12.4338 13.3491C12.1778 13.6 11.6368 13.8728 11.0063 14.1938C10.3763 14.5149 9.61878 14.9067 9.14478 15.7265C8.67028 16.5429 8.70728 17.3901 8.74328 18.0959C8.77728 18.7988 8.81378 19.4026 8.71978 19.75C8.62578 20.095 8.29278 20.6002 7.90728 21.1941C7.52428 21.7855 7.06628 22.5057 7.06628 23.449C7.06628 24.3928 7.52428 25.1081 7.90728 25.6995C8.29278 26.2928 8.62628 26.7986 8.71978 27.1465C8.81378 27.491 8.77728 28.0948 8.74328 28.8001C8.70728 29.5025 8.67028 30.3502 9.14478 31.1666C9.61828 31.9864 10.3763 32.3802 11.0063 32.6992C11.6373 33.0208 12.1783 33.2926 12.4338 33.547C12.6858 33.7983 12.9653 34.3399 13.2873 34.9676C13.5403 35.4599 13.8398 36.0329 14.3558 36.4843L10.3478 45.7012C10.0763 46.3204 10.5323 47.0158 11.2123 47.0183H20.6343C20.9828 47.0183 21.3013 46.8292 21.4653 46.5255L22.5638 44.506L23.6653 46.5255C23.8293 46.8287 24.1498 47.0183 24.4963 47.0183H33.9178C34.5993 47.0183 35.0583 46.3234 34.7848 45.7012L30.7818 36.5023C31.3103 36.0488 31.6148 35.4679 31.8728 34.9676C32.1958 34.3399 32.4723 33.7983 32.7243 33.547C32.9803 33.2926 33.5243 33.0203 34.1538 32.6992C34.7848 32.3802 35.5393 31.9864 36.0133 31.1666C36.4878 30.3502 36.4538 29.502 36.4178 28.8001C36.3808 28.0948 36.3448 27.491 36.4383 27.1465C36.5323 26.7986 36.8678 26.2928 37.2508 25.6995C37.6363 25.1081 38.0918 24.3928 38.0918 23.449C38.0918 22.5052 37.6368 21.7855 37.2508 21.1941C36.8678 20.6002 36.5318 20.095 36.4383 19.75C36.3443 19.4056 36.3808 18.7988 36.4178 18.0959C36.4538 17.3906 36.4883 16.5429 36.0133 15.7265C35.5398 14.9067 34.7848 14.5149 34.1538 14.1938C33.5238 13.8723 32.9798 13.6 32.7243 13.3491C32.4723 13.0948 32.1958 12.5522 31.8728 11.9255C31.5503 11.2983 31.1598 10.5412 30.3368 10.0693C29.5163 9.59687 28.6598 9.63868 27.9538 9.67303C27.2458 9.70887 26.6383 9.74272 26.2928 9.65163C25.9463 9.55904 25.4353 9.22702 24.8418 8.84324C24.2478 8.45895 23.5273 8 22.5788 8Z" fill="black"/>
<path d="M27.4258 17.6549C27.1808 17.6599 26.9493 17.7609 26.7773 17.9376L17.0213 27.5945C16.6383 27.9574 16.6308 28.5642 17.0038 28.938C17.3758 29.3114 17.9853 29.3064 18.3523 28.9276L28.1073 19.2702C28.7273 18.6738 28.2868 17.6315 27.4258 17.6549Z" fill="black"/>
<path d="M19.8133 18.762C20.3678 19.3115 20.3708 20.1672 19.8213 20.7113C19.2713 21.2593 18.4023 21.2593 17.8478 20.7068C17.2933 20.1567 17.2933 19.2981 17.8418 18.754C18.3913 18.2099 19.2558 18.2124 19.8133 18.762ZM21.1523 17.4344C19.8758 16.1695 17.7793 16.1641 16.5038 17.4264C15.2243 18.6913 15.2303 20.768 16.5088 22.0338C17.7853 23.2987 19.8838 23.3042 21.1623 22.0383C22.4388 20.776 22.4308 18.6992 21.1543 17.4339L21.1523 17.4344Z" fill="black"/>
<path d="M27.2818 26.1554C27.8363 26.7055 27.8363 27.5657 27.2868 28.1107C26.7378 28.6553 25.8708 28.6553 25.3163 28.1057C24.7588 27.5562 24.7588 26.6955 25.3083 26.1515C25.8603 25.6059 26.7273 25.6059 27.2818 26.1554ZM28.6228 24.8309C27.3443 23.566 25.2458 23.5605 23.9693 24.8264C22.6928 26.0887 22.6958 28.168 23.9743 29.4308C25.2508 30.6957 27.3523 30.7012 28.6288 29.4388C29.9043 28.1734 29.8993 26.0937 28.6228 24.8309Z" fill="black"/>
</svg>
