<svg width="206" height="64" viewBox="0 0 206 64" fill="none" xmlns="http://www.w3.org/2000/svg">
<path d="M3.86053 25.7804C4.38331 25.7804 4.87929 25.8811 5.34845 26.0824C5.81761 26.2838 6.22645 26.559 6.57497 26.908C6.92349 27.257 7.19829 27.6664 7.39936 28.1362C7.60043 28.5926 7.70096 29.0893 7.70096 29.6262V44.8686C7.70096 45.4055 7.60043 45.9089 7.39936 46.3787C7.19829 46.8486 6.92349 47.258 6.57497 47.607C6.22645 47.956 5.81761 48.2312 5.34845 48.4325C4.87929 48.6339 4.38331 48.7346 3.86053 48.7346C3.37797 48.7346 2.91551 48.6473 2.47315 48.4728C1.7493 48.1909 1.1528 47.7345 0.683636 47.1036C0.227879 46.4593 0 45.7143 0 44.8686V29.6262C0 29.2235 0.0603208 28.8342 0.180963 28.4584C0.301604 28.0825 0.469162 27.7402 0.683636 27.4315C0.911515 27.1228 1.17291 26.8476 1.46781 26.606C1.77611 26.3643 2.11123 26.1764 2.47315 26.0422C2.86189 25.8677 3.32435 25.7804 3.86053 25.7804ZM5.2077 29.6262C5.2077 29.2504 5.07365 28.9282 4.80556 28.6597C4.55087 28.3913 4.23586 28.257 3.86053 28.257C3.4718 28.257 3.14339 28.3913 2.87529 28.6597C2.62061 28.9282 2.49326 29.2504 2.49326 29.6262V44.8686C2.49326 45.2579 2.62061 45.5868 2.87529 45.8552C3.14339 46.1103 3.4718 46.2378 3.86053 46.2378C4.23586 46.2378 4.55087 46.1103 4.80556 45.8552C5.07365 45.5868 5.2077 45.2579 5.2077 44.8686V29.6262Z" fill="#79247A"/>
<path d="M25.4377 48.3721C25.4377 48.399 25.431 48.4191 25.4176 48.4325C25.4176 48.446 25.4176 48.4661 25.4176 48.4929C25.3506 48.654 25.2299 48.7346 25.0557 48.7346H23.3265C23.1388 48.7346 23.0182 48.654 22.9645 48.4929C22.9645 48.4661 22.9578 48.446 22.9444 48.4325C22.9444 48.4191 22.9444 48.399 22.9444 48.3721V29.6262C22.9444 29.2504 22.8104 28.9282 22.5423 28.6597C22.2876 28.3913 21.9659 28.257 21.5772 28.257C21.2018 28.257 20.8801 28.3913 20.612 28.6597C20.3573 28.9282 20.23 29.2504 20.23 29.6262V48.352C20.23 48.607 20.1027 48.7346 19.848 48.7346H18.1188C18.0383 48.7346 17.9646 48.7077 17.8976 48.654C17.8306 48.6003 17.7837 48.5399 17.7568 48.4728C17.7568 48.446 17.7501 48.4258 17.7367 48.4124C17.7367 48.399 17.7367 48.3788 17.7367 48.352V29.6262C17.7367 28.7806 17.9713 28.0423 18.4405 27.4114C18.9096 26.767 19.5062 26.3039 20.23 26.022C20.6455 25.861 21.0946 25.7804 21.5772 25.7804C22.0731 25.7804 22.5356 25.861 22.9645 26.022C23.6884 26.3039 24.2782 26.7737 24.734 27.4315C25.2031 28.0758 25.4377 28.8074 25.4377 29.6262V48.3721Z" fill="#79247A"/>
<path d="M38.0874 48.3319C38.0874 48.4393 38.0472 48.5332 37.9667 48.6138C37.8863 48.6943 37.7925 48.7346 37.6852 48.7346H35.8555C35.7483 48.7346 35.6544 48.6943 35.574 48.6138C35.507 48.5332 35.4735 48.4393 35.4735 48.3319V18.874C35.4735 18.619 35.6008 18.4915 35.8555 18.4915H37.6852C37.7925 18.4915 37.8863 18.5317 37.9667 18.6123C38.0472 18.6794 38.0874 18.7666 38.0874 18.874V48.3319Z" fill="#79247A"/>
<path d="M55.804 45.0096C55.804 45.8552 55.5761 46.6002 55.1204 47.2446C54.6646 47.8755 54.0748 48.3319 53.351 48.6138L53.2102 48.654V53.5469C53.2102 53.8019 53.0829 53.9295 52.8282 53.9295H51.099C50.9113 53.9295 50.7907 53.8422 50.7371 53.6677C50.7237 53.6543 50.717 53.614 50.717 53.5469V48.654C50.717 48.654 50.6767 48.6406 50.5963 48.6138C50.2344 48.4795 49.8993 48.2916 49.591 48.05C49.2961 47.8083 49.0347 47.5332 48.8068 47.2244C48.5923 46.9157 48.4248 46.5734 48.3041 46.1975C48.1835 45.8217 48.1232 45.4257 48.1232 45.0096V26.1227C48.1232 26.0556 48.1299 26.0153 48.1433 26.0019C48.1835 25.8408 48.2974 25.7603 48.4851 25.7603H50.2344C50.4757 25.7603 50.5963 25.8811 50.5963 26.1227V45.0096C50.5963 45.372 50.717 45.6874 50.9582 45.9559C51.2129 46.2109 51.5145 46.3519 51.8631 46.3787H52.0641C52.4126 46.3519 52.7075 46.2109 52.9488 45.9559C53.2035 45.6874 53.3309 45.372 53.3309 45.0096V26.1227C53.3309 26.0556 53.3376 26.0153 53.351 26.0019C53.3912 25.8408 53.5051 25.7603 53.6928 25.7603H55.4421C55.6298 25.7603 55.7437 25.8408 55.7839 26.0019C55.7973 26.0153 55.804 26.0556 55.804 26.1227V45.0096Z" fill="#79247A"/>
<path d="M152.689 28.2369C152.85 28.6665 152.931 29.1229 152.931 29.6061V44.929C152.931 45.3988 152.85 45.8418 152.689 46.2579C152.502 46.768 152.213 47.2177 151.825 47.607C151.436 47.9963 150.987 48.2916 150.477 48.4929C150.25 48.5735 150.022 48.6406 149.794 48.6943C149.566 48.7346 149.331 48.7547 149.09 48.7547H147.723L146.597 48.7346H145.612C145.424 48.7346 145.31 48.654 145.27 48.4929C145.256 48.4795 145.25 48.4392 145.25 48.3721V18.9546C145.25 18.6995 145.37 18.572 145.612 18.572H147.361C147.441 18.572 147.515 18.5988 147.582 18.6525C147.649 18.7062 147.696 18.7666 147.723 18.8338V25.7603H149.09C149.613 25.7603 150.075 25.8475 150.477 26.022C150.987 26.21 151.436 26.4986 151.825 26.8878C152.213 27.2771 152.502 27.7268 152.689 28.2369ZM150.457 29.6061C150.457 29.2302 150.323 28.9081 150.055 28.6396C149.787 28.3711 149.465 28.2369 149.09 28.2369H147.723V46.2579H149.09C149.465 46.2579 149.787 46.1304 150.055 45.8754C150.323 45.6203 150.457 45.3049 150.457 44.929V29.6061Z" fill="#79247A"/>
<path d="M166.807 25.7603C167.343 25.7603 167.839 25.861 168.295 26.0623C168.764 26.2637 169.173 26.5388 169.521 26.8878C169.87 27.2369 170.144 27.6463 170.346 28.1161C170.547 28.5859 170.647 29.0826 170.647 29.6061V48.3319C170.647 48.5869 170.527 48.7144 170.285 48.7144H168.536C168.362 48.7144 168.248 48.6272 168.194 48.4527C167.966 48.5332 167.738 48.6003 167.51 48.654C167.283 48.6943 167.048 48.7144 166.807 48.7144C166.565 48.7144 166.331 48.6943 166.103 48.654C165.875 48.6003 165.647 48.5332 165.419 48.4527C164.695 48.1708 164.106 47.7144 163.65 47.0835C163.194 46.4391 162.966 45.6941 162.966 44.8485V36.3715V29.6061C162.966 29.2034 163.027 28.8141 163.147 28.4383C163.268 28.0624 163.435 27.7201 163.65 27.4114C163.864 27.1026 164.119 26.8274 164.414 26.5858C164.722 26.3442 165.057 26.1563 165.419 26.022C165.821 25.8475 166.284 25.7603 166.807 25.7603ZM166.807 46.2177C167.195 46.2177 167.517 46.0901 167.772 45.8351C168.04 45.5666 168.174 45.2377 168.174 44.8485V29.6061C168.174 29.2302 168.04 28.9081 167.772 28.6396C167.517 28.3711 167.195 28.2369 166.807 28.2369C166.431 28.2369 166.11 28.3711 165.842 28.6396C165.573 28.9081 165.439 29.2302 165.439 29.6061V44.8485C165.439 45.2377 165.573 45.5666 165.842 45.8351C166.11 46.0901 166.431 46.2177 166.807 46.2177Z" fill="#79247A"/>
<path d="M188.364 48.3721C188.364 48.399 188.357 48.4191 188.344 48.4325C188.344 48.446 188.344 48.4661 188.344 48.4929C188.277 48.654 188.156 48.7346 187.982 48.7346H186.253C186.065 48.7346 185.944 48.654 185.891 48.4929C185.891 48.4661 185.884 48.446 185.871 48.4325C185.871 48.4191 185.871 48.399 185.871 48.3721V29.6262C185.871 29.2504 185.736 28.9282 185.468 28.6597C185.214 28.3913 184.892 28.257 184.503 28.257C184.128 28.257 183.806 28.3913 183.538 28.6597C183.283 28.9282 183.156 29.2504 183.156 29.6262V48.352C183.156 48.607 183.029 48.7346 182.774 48.7346H181.045C180.964 48.7346 180.891 48.7077 180.824 48.654C180.757 48.6003 180.71 48.5399 180.683 48.4728C180.683 48.446 180.676 48.4258 180.663 48.4124C180.663 48.399 180.663 48.3788 180.663 48.352V29.6262C180.663 28.7806 180.897 28.0423 181.367 27.4114C181.836 26.767 182.432 26.3039 183.156 26.022C183.572 25.861 184.021 25.7804 184.503 25.7804C184.999 25.7804 185.462 25.861 185.891 26.022C186.614 26.3039 187.204 26.7737 187.66 27.4315C188.129 28.0758 188.364 28.8074 188.364 29.6262V48.3721Z" fill="#79247A"/>
<path d="M205.739 32.7875C205.658 33.0157 205.551 33.2372 205.417 33.4519C205.283 33.6533 205.135 33.8479 204.975 34.0359C205.135 34.2238 205.283 34.4251 205.417 34.6399C205.551 34.8413 205.658 35.056 205.739 35.2842C205.913 35.7272 206 36.1769 206 36.6333V48.352C206 48.607 205.873 48.7346 205.618 48.7346H203.889C203.808 48.7346 203.735 48.7077 203.668 48.654C203.601 48.6003 203.554 48.5399 203.527 48.4728C203.527 48.446 203.52 48.4258 203.507 48.4124C203.507 48.399 203.507 48.3788 203.507 48.352V36.6333C203.507 36.2574 203.373 35.942 203.105 35.6869C202.85 35.4185 202.528 35.2842 202.139 35.2842H200.752V48.352C200.752 48.607 200.631 48.7346 200.39 48.7346H198.641C198.48 48.7346 198.366 48.6607 198.299 48.5131V18.6727C198.366 18.525 198.48 18.4512 198.641 18.4512H200.39C200.564 18.4512 200.678 18.5384 200.732 18.7129C200.745 18.7264 200.752 18.7666 200.752 18.8338V32.7875H202.139C202.528 32.7875 202.85 32.6599 203.105 32.4049C203.373 32.1499 203.507 31.8344 203.507 31.4585V26.0422C203.507 25.8005 203.634 25.6797 203.889 25.6797H205.618C205.806 25.6797 205.926 25.767 205.98 25.9415C205.98 25.9549 205.98 25.9683 205.98 25.9818C205.993 25.9952 206 26.0153 206 26.0422V31.4585C206 31.9015 205.913 32.3445 205.739 32.7875Z" fill="#79247A"/>
<path d="M100.398 63.9016H80.9314C79.434 63.9016 77.7045 64.0291 77.1504 62.2521C76.6862 60.7526 76.4017 58.9682 78.1837 57.9335C79.5164 57.1837 78.9997 55.9541 79.0147 54.9345C79.2169 44.5877 85.2066 38.2597 93.667 33.6037C94.3408 33.2363 95.112 32.7715 95.5387 33.7162C95.9655 34.6609 95.1494 35.0433 94.5055 35.4556C91.3684 37.48 88.2688 39.5493 85.6932 42.331C82.1593 46.1547 81.2384 50.8183 81.0812 55.8267C81.0063 58.076 82.5786 57.6936 83.8963 57.6936C93.6295 57.6936 103.363 57.6936 113.096 57.7386C116.6 57.7311 116.84 57.5061 116.907 58.5558C116.907 59.8904 116.339 59.7029 112.856 59.7029C102.884 59.7854 92.9108 59.7479 82.908 59.7479C82.032 59.7479 81.1635 59.7479 80.2875 59.8079C79.7709 59.8079 79.2992 60.0178 79.2169 60.5577C79.1046 61.3974 79.7035 61.5774 80.3624 61.6148C81.0213 61.6523 81.6053 61.6148 82.2267 61.6148C94.3259 61.6148 106.417 61.6148 118.509 61.6148C119.527 61.6148 121.025 61.9148 121.504 60.9176C121.983 59.9204 120.531 59.7554 120.007 59.1856C119.131 58.2484 119.505 57.0563 119.49 55.9841C119.393 46.5146 114.451 40.1042 106.605 35.5756C102.382 33.1389 97.4554 32.3891 93.1728 30.0049C84.6226 25.2514 79.1196 18.6085 79.0746 8.35921C79.0746 7.36953 79.0746 6.55978 78.019 5.82501C76.4841 4.73786 76.6413 2.93092 77.2702 1.4089C77.8992 -0.113116 79.4565 0.00684935 80.8416 0.00684935C93.939 0.00684935 107.031 0.00684935 120.119 0.00684935C121.347 0.00684935 122.732 -0.173078 123.316 1.31145C123.9 2.79598 124.192 4.59539 122.986 5.5326C121.586 6.61225 121.789 7.7819 121.721 9.10898C121.182 19.0958 115.649 25.6487 107.211 30.1998C106.462 30.6122 105.497 31.2795 104.905 30.2898C104.314 29.3001 105.444 28.8352 106.155 28.4154C109.776 26.4543 112.974 23.7968 115.567 20.5953C118.21 17.1764 119.198 13.3376 119.497 9.14646C119.662 6.89717 119.078 6.14741 116.682 6.14741C106.949 6.28986 97.2159 6.20739 87.4826 6.1999C86.6141 6.1999 85.7381 6.1999 84.8696 6.15491C84.4129 6.15491 83.7241 6.15491 83.7241 5.48761C83.7241 4.303 84.1734 4.23552 84.7798 4.16054C85.5286 4.06798 86.6516 4.16054 87.7971 4.16054H117.349C118.097 4.16054 118.846 4.20553 119.595 4.16054C120.343 4.11555 121.579 4.46044 121.526 3.10337C121.482 2.0837 120.463 2.25614 119.774 2.25614C106.797 2.25614 93.8317 2.25614 80.879 2.25614C80.295 2.25614 79.5763 2.10619 79.2618 2.80347C79.1878 2.94367 79.1468 3.09893 79.1417 3.25743C79.1367 3.41593 79.1679 3.57348 79.2329 3.71809C79.2979 3.8627 79.395 3.99056 79.5167 4.09192C79.6385 4.19328 79.7818 4.26547 79.9356 4.303C81.6727 4.99278 81.4331 6.55228 81.2833 7.81188C80.4073 17.2739 88.1864 26.2785 96.7891 29.3976C101.596 31.137 106.41 32.794 110.648 35.7855C117.461 40.5915 121.766 46.7545 121.729 55.4143C121.729 56.359 121.556 57.2737 122.635 58.031C124.229 59.1556 123.892 60.9251 123.331 62.4621C122.432 63.9016 121.182 63.8791 119.849 63.8866C113.366 63.9066 106.882 63.9116 100.398 63.9016Z" fill="#79247A"/>
<path d="M102.24 25.0114C101.994 25.1886 101.696 25.2783 101.393 25.266C101.091 25.2538 100.801 25.1404 100.57 24.9439C99.6354 24.2246 98.7546 23.4378 97.9346 22.5897C97.1859 21.7724 96.5495 20.4604 97.6202 19.6281C98.9154 18.616 99.1176 20.183 99.6492 20.9102C100.181 21.6375 100.892 22.4622 102.105 21.9899C102.458 21.8668 102.76 21.6301 102.965 21.3168C103.169 21.0034 103.265 20.6311 103.235 20.2579C103.235 18.8634 102.397 18.3235 101.162 18.0911C98.9903 17.6712 97.5228 16.4266 97.2158 14.1924C96.9089 11.9581 98.5111 10.6835 100.166 9.47634C101.716 8.46416 102.157 9.3189 103.108 9.92621C104.606 10.8559 105.669 11.958 105.467 13.8025C105.377 14.5897 104.673 14.6722 104.059 14.2973C103.747 14.0998 103.506 13.8084 103.37 13.4651C103.308 13.19 103.186 12.9318 103.014 12.7088C102.841 12.4857 102.622 12.3031 102.372 12.1738C102.121 12.0445 101.846 11.9716 101.564 11.9603C101.283 11.9489 101.002 11.9993 100.742 12.108C100.37 12.1732 100.033 12.372 99.7965 12.6673C99.5595 12.9625 99.438 13.3341 99.4545 13.7125C99.4534 14.2852 99.6704 14.8367 100.061 15.2547C100.452 15.6726 100.988 15.9255 101.558 15.9618C104.096 16.2167 105.302 17.7462 105.579 20.0855C105.863 22.5972 103.872 23.7293 102.247 25.0264L102.24 25.0114Z" fill="#79247A"/>
<path d="M108.237 52.0254C102.711 52.4378 97.5228 49.6711 92.0048 50.2784C90.0432 50.5034 88.0741 50.7358 86.105 50.9007C85.1991 50.9757 83.8589 51.508 83.7466 50.016C83.6642 49.0038 84.7873 48.7939 85.6558 48.6439C90.1748 47.7464 94.8289 47.7795 99.3347 48.7414C104.42 49.932 109.695 50.0621 114.833 49.1238C115.784 48.9439 117.079 48.599 117.214 49.9935C117.326 51.1032 116.076 51.0807 115.245 51.1856C112.916 51.4931 110.61 51.748 108.237 52.0254Z" fill="#79247A"/>
<path d="M101.311 36.1529C101.311 36.7902 100.765 36.9476 100.316 37.0076C100.196 37.0363 100.071 37.0349 99.9517 37.0037C99.8326 36.9724 99.7231 36.9123 99.6327 36.8285C99.5424 36.7447 99.4741 36.6399 99.4339 36.5234C99.3937 36.4068 99.3827 36.2822 99.4021 36.1604C99.3898 36.0391 99.4057 35.9166 99.4487 35.8026C99.4917 35.6885 99.5605 35.586 99.6498 35.5032C99.7391 35.4203 99.8464 35.3593 99.9632 35.325C100.08 35.2908 100.203 35.2841 100.323 35.3057C100.802 35.3207 101.266 35.5381 101.311 36.1529Z" fill="#79247A"/>
<path d="M100.308 37.1576C100.862 37.1576 101.311 36.7078 101.311 36.1529C101.311 35.598 100.862 35.1482 100.308 35.1482C99.754 35.1482 99.3048 35.598 99.3048 36.1529C99.3048 36.7078 99.754 37.1576 100.308 37.1576Z" fill="#79247A"/>
<path d="M100.308 41.4537C100.862 41.4537 101.311 41.0039 101.311 40.449C101.311 39.8942 100.862 39.4444 100.308 39.4444C99.754 39.4444 99.3048 39.8942 99.3048 40.449C99.3048 41.0039 99.754 41.4537 100.308 41.4537Z" fill="#79247A"/>
<path d="M100.308 45.7649C100.862 45.7649 101.311 45.315 101.311 44.7602C101.311 44.2053 100.862 43.7555 100.308 43.7555C99.754 43.7555 99.3048 44.2053 99.3048 44.7602C99.3048 45.315 99.754 45.7649 100.308 45.7649Z" fill="#79247A"/>
<path d="M100.166 9.47634C101.716 8.46416 102.412 9.40137 103.108 9.92621L100.166 9.47634Z" fill="#79247A"/>
</svg>
