<svg width="55" height="55" viewBox="0 0 55 55" fill="none" xmlns="http://www.w3.org/2000/svg">
<rect y="-6.10352e-05" width="55" height="55" rx="20" fill="#F9FDFF"/>
<path d="M27 15.9999C20.9378 15.9999 16 20.9377 16 26.9999C16 33.0622 20.9378 37.9999 27 37.9999C33.0622 37.9999 38 33.0622 38 26.9999C38 20.9377 33.0622 15.9999 27 15.9999ZM27 36.0444C22.0133 36.0444 17.9556 31.9866 17.9556 26.9999C17.9556 22.0133 22.0133 17.9555 27 17.9555C31.9867 17.9555 36.0444 22.0133 36.0444 26.9999C36.0444 31.9866 31.9867 36.0444 27 36.0444Z" fill="#84848D"/>
<path d="M26.9957 22.3067C27.6707 22.3067 28.2179 21.7595 28.2179 21.0845C28.2179 20.4095 27.6707 19.8622 26.9957 19.8622C26.3206 19.8622 25.7734 20.4095 25.7734 21.0845C25.7734 21.7595 26.3206 22.3067 26.9957 22.3067Z" fill="#84848D"/>
<path d="M27.0002 24.1399C26.4625 24.1399 26.0225 24.5799 26.0225 25.1177V33.1844C26.0225 33.7222 26.4625 34.1622 27.0002 34.1622C27.538 34.1622 27.978 33.7222 27.978 33.1844V25.1177C27.978 24.5555 27.538 24.1399 27.0002 24.1399Z" fill="#84848D"/>
</svg>
