<svg width="55" height="55" viewBox="0 0 55 55" fill="none" xmlns="http://www.w3.org/2000/svg">
<rect y="-6.10352e-05" width="55" height="55" rx="20" fill="#F9FDFF"/>
<path d="M32.8625 27.4531C32.8625 26.9784 32.4848 26.5937 32.0188 26.5937H23.3281C22.8621 26.5937 22.4844 26.9784 22.4844 27.4531C22.4844 27.9277 22.8621 28.3124 23.3281 28.3124H32.0188C32.4848 28.3124 32.8625 27.9277 32.8625 27.4531Z" fill="#84848D"/>
<path d="M23.3281 30.0312C22.8621 30.0312 22.4844 30.4159 22.4844 30.8906C22.4844 31.3652 22.8621 31.7499 23.3281 31.7499H28.6062C29.0722 31.7499 29.45 31.3652 29.45 30.8906C29.45 30.4159 29.0722 30.0312 28.6062 30.0312H23.3281Z" fill="#84848D"/>
<path d="M25.3141 38.2812H22.4922C21.5617 38.2812 20.8047 37.5102 20.8047 36.5624V21.4374C20.8047 20.4897 21.5617 19.7187 22.4922 19.7187H32.8656C33.7961 19.7187 34.5531 20.4897 34.5531 21.4374L34.6466 37.2499C34.6466 37.7083 35.0966 37.7083 35.0966 37.7083C35.0966 37.7083 35.5466 38.2812 36.2406 26.7226V21.4374C36.2406 19.542 34.7266 17.9999 32.8656 17.9999H22.4922C20.6312 17.9999 19.1172 19.542 19.1172 21.4374V36.5624C19.1172 38.4579 20.6312 39.9999 22.4922 39.9999H25.3141C25.7801 39.9999 26.1578 39.6152 26.1578 39.1406C26.1578 38.6659 25.7801 38.2812 25.3141 38.2812Z" fill="#84848D"/>
<path d="M32.0188 23.1562H23.3281C22.8621 23.1562 22.4844 23.5409 22.4844 24.0156C22.4844 24.4902 22.8621 24.8749 23.3281 24.8749H32.0188C32.4848 24.8749 32.8625 24.4902 32.8625 24.0156C32.8625 23.5409 32.4848 23.1562 32.0188 23.1562Z" fill="#84848D"/>
</svg>
