<svg width="55" height="55" viewBox="0 0 55 55" fill="none" xmlns="http://www.w3.org/2000/svg">
<rect y="-6.10352e-05" width="55" height="55" rx="20" fill="#F9FDFF"/>
<g clip-path="url(#clip0_20:654)">
<path d="M17.4975 28.9643C18.8689 27.5929 21.1003 27.5929 22.4717 28.9643L24.7325 31.2251C25.0141 31.5067 25.3613 31.6989 25.7396 31.7874V29.0301L33.5662 29.0301C34.5053 29.0301 35.3883 29.3958 36.0525 30.0599L41 35.0075L35.7861 40.2212L31.6272 36.0622L26.2241 36.0622C24.5337 36.0622 22.9456 35.4051 21.7523 34.2121C18.6667 31.1266 17.1829 29.6445 17 29.4617L17.4975 28.9643ZM22.7468 33.2175C23.6744 34.145 24.9093 34.6558 26.2241 34.6558H32.2097L35.7861 38.2323L39.011 35.0075L35.058 31.0545C34.6595 30.656 34.1297 30.4366 33.5662 30.4366L27.1461 30.4366V31.843H31.9185V33.2494H26.2242C25.285 33.2494 24.402 32.8837 23.738 32.2196L21.4771 29.9588C20.8285 29.3102 19.8591 29.1728 19.0746 29.5466C20.2014 30.6726 21.6473 32.1182 22.7468 33.2175Z" fill="#84848D"/>
<path d="M22.9519 17.7787L32.7969 17.7787L32.7969 27.6237L22.9519 27.6237L22.9519 17.7787ZM24.3583 26.2172L31.3904 26.2172V19.1851L28.5776 19.1851L28.5776 21.9979H27.1712V19.1851L24.3583 19.1851L24.3583 26.2172Z" fill="#84848D"/>
</g>
<defs>
<clipPath id="clip0_20:654">
<rect width="24" height="24" fill="white" transform="matrix(-1 -8.74228e-08 -8.74228e-08 1 41 15.9999)"/>
</clipPath>
</defs>
</svg>
