<svg width="55" height="55" viewBox="0 0 55 55" fill="none" xmlns="http://www.w3.org/2000/svg">
<rect y="-6.10352e-05" width="55" height="55" rx="20" fill="#F9FDFF"/>
<path d="M37.1406 29.2083C37.6153 29.2083 38 28.8236 38 28.3489V23.3593C38 21.4639 36.4579 19.9218 34.5625 19.9218H19.4375C17.5421 19.9218 16 21.4639 16 23.3593V32.6406C16 34.536 17.5421 36.0781 19.4375 36.0781H34.5625C36.4579 36.0781 38 34.536 38 32.6406C38 32.1659 37.6153 31.7812 37.1406 31.7812C36.666 31.7812 36.2812 32.1659 36.2812 32.6406C36.2812 33.5883 35.5102 34.3593 34.5625 34.3593H19.4375C18.4898 34.3593 17.7188 33.5883 17.7188 32.6406V26.2005H36.2812V28.3489C36.2812 28.8236 36.666 29.2083 37.1406 29.2083ZM17.7188 24.4817V23.3593C17.7188 22.4116 18.4898 21.6406 19.4375 21.6406H34.5625C35.5102 21.6406 36.2812 22.4116 36.2812 23.3593V24.4817H17.7188Z" fill="#84848D"/>
</svg>
