<svg width="50" height="50" viewBox="0 0 50 50" fill="none" xmlns="http://www.w3.org/2000/svg">
<circle cx="25" cy="25" r="24.3" stroke="#DFDFDF" stroke-width="1.4"/>
<path d="M19.4985 15.0051C17.9831 14.9396 16.833 15.5154 16.1095 16.2076C15.7478 16.5537 15.4866 16.924 15.3079 17.2697C15.1291 17.6154 15.0156 17.9004 15.0156 18.2711C15.0156 18.2381 15.0074 18.4113 15.0025 18.6126C14.9976 18.8138 14.9985 19.0851 15.017 19.4128C15.054 20.0682 15.1651 20.9548 15.4598 22.0059C16.0492 24.1081 17.3763 26.8657 20.2553 29.7447C23.1343 32.6237 25.8918 33.9506 27.9941 34.5402C29.0453 34.835 29.9317 34.9459 30.5872 34.983C30.915 35.0015 31.1847 35.0023 31.386 34.9975C31.5872 34.9926 31.7618 34.9844 31.7289 34.9844C32.0996 34.9844 32.3846 34.8709 32.7303 34.6921C33.076 34.5134 33.4463 34.2522 33.7924 33.8905C34.4846 33.167 35.0604 32.0169 34.9949 30.5015C34.9638 29.7788 34.5626 29.1388 33.9704 28.7593C33.5128 28.466 32.8023 28.0108 31.8751 27.4178C30.7992 26.7305 29.4232 26.6814 28.3009 27.2963L28.3646 27.2645L27.492 27.6392L27.4283 27.6841C27.2162 27.833 26.9536 27.8606 26.7149 27.7608C26.0465 27.4813 25.0049 26.932 24.0364 25.9636C23.068 24.9951 22.5187 23.9535 22.2392 23.2851C22.1394 23.0464 22.167 22.7838 22.3159 22.5717L22.3608 22.508L22.7355 21.6354L22.7037 21.6991C23.3185 20.5771 23.2707 19.2011 22.5822 18.1249C21.9892 17.1977 21.534 16.4872 21.2407 16.0296C20.8612 15.4374 20.2212 15.0362 19.4985 15.0051ZM19.4348 16.4854C19.6427 16.4943 19.8573 16.6159 19.9934 16.8284C20.2869 17.2865 20.7424 17.9972 21.3348 18.9237C21.728 19.5382 21.7556 20.3459 21.4043 20.9872L21.3869 21.019L21.0295 21.854L21.1033 21.7194C20.6654 22.343 20.5774 23.1529 20.8717 23.8567C21.2057 24.6552 21.8442 25.8667 22.9888 27.0112C24.1333 28.1558 25.3448 28.7943 26.1433 29.1282C26.8471 29.4226 27.657 29.3346 28.2806 28.8967L28.146 28.9705L28.981 28.6131L29.0128 28.5957C29.6538 28.2445 30.4614 28.2738 31.0763 28.6666V28.6652C32.0028 29.2576 32.7135 29.7131 33.1716 30.0066C33.3841 30.1427 33.5056 30.3573 33.5146 30.5652C33.5632 31.6903 33.1724 32.3948 32.7216 32.866C32.4962 33.1016 32.2518 33.2725 32.0502 33.3768C31.8486 33.481 31.6558 33.5027 31.7289 33.5027C31.593 33.5027 31.5215 33.5116 31.3513 33.5157C31.181 33.5198 30.9529 33.5201 30.6711 33.5041C30.1077 33.4722 29.33 33.3761 28.3935 33.1134C26.5204 32.5881 24.0095 31.4036 21.303 28.697C18.5964 25.9905 17.4117 23.4794 16.8866 21.6065C16.624 20.6701 16.5277 19.8922 16.4959 19.3289C16.48 19.0472 16.4802 18.819 16.4843 18.6487C16.4885 18.4785 16.4973 18.4071 16.4973 18.2711C16.4973 18.3442 16.519 18.1514 16.6232 17.9498C16.7275 17.7482 16.8984 17.5038 17.134 17.2784C17.6052 16.8276 18.3097 16.4368 19.4348 16.4854Z" fill="#84848D"/>
</svg>
