<?xml version="1.0" encoding="utf-8"?>
<!-- Generator: Adobe Illustrator 25.4.1, SVG Export Plug-In . SVG Version: 6.00 Build 0)  -->
<svg version="1.1" id="Layer_1" xmlns="http://www.w3.org/2000/svg" xmlns:xlink="http://www.w3.org/1999/xlink" x="0px" y="0px"
	 viewBox="0 0 34 32" enable-background="new 0 0 34 32" xml:space="preserve">
<linearGradient id="SVGID_1_" gradientUnits="userSpaceOnUse" x1="16.6569" y1="32.5" x2="16.6569" y2="3.5" gradientTransform="matrix(1 0 0 -1 0 34)">
	<stop  offset="0" style="stop-color:#FF9159"/>
	<stop  offset="0.6875" style="stop-color:#FF7631"/>
	<stop  offset="1" style="stop-color:#FF6A1F"/>
</linearGradient>
<path fill="url(#SVGID_1_)" d="M18.2,7.2c0.8,1.1,1.3,2.5,1.3,3.9v1.3c0.4,0,0.9-0.1,1.2-0.4c0.3-0.3,0.6-0.6,0.7-1l0.1-0.5l0.4,0.4
	c0.6,0.7,0.9,1.6,0.9,2.5c0,0.9-0.3,1.8-1,2.5c-0.2,0.3-0.3,0.6-0.3,1c0,0.3,0.2,0.7,0.4,0.9c0.1,0.1,0.3,0.2,0.5,0.3
	c0.2,0.1,0.4,0.1,0.6,0.1c0.2,0,0.4-0.1,0.6-0.2c0.2-0.1,0.3-0.2,0.5-0.4l1-1.3l1,2.5c0.5,1.5,0.5,3.1,0.1,4.6
	c-0.4,1.5-1.2,2.9-2.3,4l-0.1,0.1c-1.7,1.7-4.1,2.7-6.5,2.7h-1c-1.6,0-3.2-0.4-4.6-1.2S9,27.4,8.2,26.1c-1-1.6-1.4-3.5-1.3-5.4
	C7.1,18.8,7.8,17,9,15.5l4.1-4.9c0.4-0.5,0.7-1.1,0.7-1.7c0.1-0.6,0-1.3-0.3-1.8c-0.3-0.7-0.4-1.5-0.2-2.3c0.2-0.8,0.7-1.4,1.4-1.9
	L17,1.5v1.8C17,4.7,17.4,6.1,18.2,7.2L18.2,7.2z"/>
<path fill="#FDD04A" d="M20.7,27.1L20.7,27.1c0.8-0.8,1.4-1.8,1.6-2.8c0.3-1.1,0.3-2.2,0-3.3l-1.5,1.5c-0.1,0.1-0.3,0.2-0.5,0.3
	c-0.2,0.1-0.4,0.1-0.6,0.1s-0.4,0-0.6-0.1c-0.2-0.1-0.3-0.2-0.5-0.3c-0.3-0.3-0.4-0.6-0.4-1c0-0.4,0.1-0.7,0.3-1
	c0.5-0.6,0.8-1.3,0.9-2.1c0.1-0.8,0-1.5-0.4-2.2l-2.4-4.7l-0.4,4c0,0.5-0.2,0.9-0.4,1.4c-0.2,0.4-0.5,0.8-0.9,1.1l-2.1,1.6
	c-0.6,0.4-1,1-1.3,1.6c-0.3,0.6-0.5,1.3-0.5,2v0.6c0,0.7,0.2,1.4,0.4,2c0.3,0.6,0.7,1.2,1.3,1.6c0.9,0.7,1.9,1.1,3.1,1.1l1.5,0
	C18.6,28.5,19.8,28,20.7,27.1L20.7,27.1z"/>
<path fill="#FE691E" d="M8.4,12c-0.1,0-0.3-0.1-0.4-0.1c-0.1-0.1-0.1-0.2-0.1-0.4v-1c0-0.1,0.1-0.3,0.1-0.4C8.1,10.1,8.2,10,8.4,10
	c0.1,0,0.3,0.1,0.4,0.1c0.1,0.1,0.1,0.2,0.1,0.4v1c0,0.1-0.1,0.3-0.1,0.4C8.6,11.9,8.5,12,8.4,12z"/>
<path fill="#FF8D54" d="M9.9,9.5c-0.1,0-0.3-0.1-0.4-0.1C9.4,9.3,9.4,9.1,9.4,9V8c0-0.1,0.1-0.3,0.1-0.4c0.1-0.1,0.2-0.1,0.4-0.1
	s0.3,0.1,0.4,0.1c0.1,0.1,0.1,0.2,0.1,0.4v1c0,0.1-0.1,0.3-0.1,0.4C10.2,9.4,10,9.5,9.9,9.5z"/>
<path fill="#FFB895" d="M7.9,7.5c-0.1,0-0.3-0.1-0.4-0.1C7.4,7.3,7.4,7.1,7.4,7V6c0-0.1,0.1-0.3,0.1-0.4c0.1-0.1,0.2-0.1,0.4-0.1
	c0.1,0,0.3,0.1,0.4,0.1C8.3,5.7,8.4,5.9,8.4,6v1c0,0.1-0.1,0.3-0.1,0.4C8.1,7.4,8,7.5,7.9,7.5z"/>
<path fill="#FE691E" d="M25.6,13.5c-0.1,0-0.3-0.1-0.4-0.1C25.1,13.3,25,13.1,25,13v-1c0-0.1,0.1-0.3,0.1-0.4
	c0.1-0.1,0.2-0.1,0.4-0.1c0.1,0,0.3,0.1,0.4,0.1c0.1,0.1,0.1,0.2,0.1,0.4v1c0,0.1-0.1,0.3-0.1,0.4C25.8,13.4,25.7,13.5,25.6,13.5z"
	/>
<path fill="#FF8D54" d="M24,10c-0.1,0-0.3-0.1-0.4-0.1c-0.1-0.1-0.1-0.2-0.1-0.4v-1c0-0.1,0.1-0.3,0.1-0.4C23.8,8.1,23.9,8,24,8
	c0.1,0,0.3,0.1,0.4,0.1c0.1,0.1,0.1,0.2,0.1,0.4v1c0,0.1-0.1,0.3-0.1,0.4C24.3,9.9,24.2,10,24,10z"/>
<path fill="#FFB895" d="M26.1,8.5c-0.1,0-0.3-0.1-0.4-0.1c-0.1-0.1-0.1-0.2-0.1-0.4V6.5c0-0.1,0.1-0.3,0.1-0.4
	C25.8,6.1,25.9,6,26.1,6c0.1,0,0.3,0.1,0.4,0.1c0.1,0.1,0.1,0.2,0.1,0.4V8c0,0.1-0.1,0.3-0.1,0.4C26.3,8.4,26.2,8.5,26.1,8.5z"/>
</svg>
