<svg width="55" height="55" viewBox="0 0 55 55" fill="none" xmlns="http://www.w3.org/2000/svg">
<rect y="-6.10352e-05" width="55" height="55" rx="20" fill="#222223"/>
<path d="M27.9961 34.3379C28.5894 34.3379 29.0703 33.8569 29.0703 33.2637C29.0703 32.6704 28.5894 32.1895 27.9961 32.1895C27.4028 32.1895 26.9219 32.6704 26.9219 33.2637C26.9219 33.8569 27.4028 34.3379 27.9961 34.3379Z" fill="white"/>
<path d="M28 17C21.9206 17 17 21.9198 17 28C17 34.0794 21.9198 39 28 39C34.0794 39 39 34.0802 39 28C39 21.9206 34.0802 17 28 17ZM28 37.2812C22.8705 37.2812 18.7188 33.1302 18.7188 28C18.7188 22.8705 22.8698 18.7188 28 18.7188C33.1295 18.7188 37.2812 22.8698 37.2812 28C37.2812 33.1295 33.1302 37.2812 28 37.2812Z" fill="white"/>
<path d="M28 22.5215C26.1046 22.5215 24.5625 24.0635 24.5625 25.959C24.5625 26.4336 24.9472 26.8184 25.4219 26.8184C25.8965 26.8184 26.2812 26.4336 26.2812 25.959C26.2812 25.0113 27.0523 24.2402 28 24.2402C28.9477 24.2402 29.7188 25.0113 29.7188 25.959C29.7188 26.9067 28.9477 27.6777 28 27.6777C27.5254 27.6777 27.1406 28.0625 27.1406 28.5371V30.6855C27.1406 31.1602 27.5254 31.5449 28 31.5449C28.4746 31.5449 28.8594 31.1602 28.8594 30.6855V29.2877C30.3403 28.9052 31.4375 27.5578 31.4375 25.959C31.4375 24.0635 29.8954 22.5215 28 22.5215Z" fill="white"/>
</svg>
