<svg width="55" height="55" viewBox="0 0 55 55" fill="none" xmlns="http://www.w3.org/2000/svg">
<rect y="-6.10352e-05" width="55" height="55" rx="20" fill="#222223"/>
<path d="M33.7252 21.1633H20.2748C19.0205 21.1633 18 22.2216 18 23.5224V32.4774C18 33.7782 19.0205 34.8365 20.2748 34.8365H33.7252C34.9795 34.8365 36 33.7782 36 32.4774V23.5224C36 22.2216 34.9795 21.1633 33.7252 21.1633ZM33.3698 22.685L27 27.7878L20.6302 22.685H33.3698ZM33.7252 33.3149H20.2748C19.8296 33.3149 19.4674 32.9392 19.4674 32.4775V23.6764L26.5515 29.3514C26.6835 29.4573 26.8418 29.5101 27 29.5101C27.1582 29.5101 27.3165 29.4573 27.4485 29.3514L34.5326 23.6764V32.4774C34.5326 32.9392 34.1704 33.3149 33.7252 33.3149Z" fill="white"/>
</svg>
