<svg width="206" height="64" viewBox="0 0 206 64" fill="none" xmlns="http://www.w3.org/2000/svg">
<path d="M3.86053 25.8181C4.38331 25.8181 4.87929 25.9189 5.34845 26.1206C5.81761 26.3222 6.22645 26.5978 6.57497 26.9473C6.92349 27.2968 7.19829 27.7068 7.39936 28.1773C7.60043 28.6344 7.70096 29.1318 7.70096 29.6695V44.9342C7.70096 45.4719 7.60043 45.976 7.39936 46.4465C7.19829 46.917 6.92349 47.327 6.57497 47.6766C6.22645 48.0261 5.81761 48.3017 5.34845 48.5033C4.87929 48.705 4.38331 48.8058 3.86053 48.8058C3.37797 48.8058 2.91551 48.7184 2.47315 48.5436C1.7493 48.2613 1.1528 47.8043 0.683636 47.1724C0.227879 46.5272 0 45.7811 0 44.9342V29.6695C0 29.2662 0.0603208 28.8764 0.180963 28.5C0.301604 28.1236 0.469162 27.7808 0.683636 27.4716C0.911515 27.1624 1.17291 26.8868 1.46781 26.6448C1.77611 26.4029 2.11123 26.2147 2.47315 26.0802C2.86189 25.9055 3.32435 25.8181 3.86053 25.8181ZM5.2077 29.6695C5.2077 29.2931 5.07365 28.9705 4.80556 28.7016C4.55087 28.4328 4.23586 28.2983 3.86053 28.2983C3.4718 28.2983 3.14339 28.4328 2.87529 28.7016C2.62061 28.9705 2.49326 29.2931 2.49326 29.6695V44.9342C2.49326 45.324 2.62061 45.6534 2.87529 45.9222C3.14339 46.1777 3.4718 46.3054 3.86053 46.3054C4.23586 46.3054 4.55087 46.1777 4.80556 45.9222C5.07365 45.6534 5.2077 45.324 5.2077 44.9342V29.6695Z" fill="#79247A"/>
<path d="M25.4377 48.4428C25.4377 48.4697 25.431 48.4899 25.4176 48.5033C25.4176 48.5168 25.4176 48.5369 25.4176 48.5638C25.3506 48.7251 25.2299 48.8058 25.0557 48.8058H23.3265C23.1388 48.8058 23.0182 48.7251 22.9645 48.5638C22.9645 48.5369 22.9578 48.5168 22.9444 48.5033C22.9444 48.4899 22.9444 48.4697 22.9444 48.4428V29.6695C22.9444 29.2931 22.8104 28.9705 22.5423 28.7016C22.2876 28.4328 21.9659 28.2983 21.5772 28.2983C21.2018 28.2983 20.8801 28.4328 20.612 28.7016C20.3573 28.9705 20.23 29.2931 20.23 29.6695V48.4227C20.23 48.6781 20.1027 48.8058 19.848 48.8058H18.1188C18.0383 48.8058 17.9646 48.7789 17.8976 48.7251C17.8306 48.6714 17.7837 48.6109 17.7568 48.5436C17.7568 48.5168 17.7501 48.4966 17.7367 48.4831C17.7367 48.4697 17.7367 48.4495 17.7367 48.4227V29.6695C17.7367 28.8226 17.9713 28.0832 18.4405 27.4514C18.9096 26.8062 19.5062 26.3424 20.23 26.0601C20.6455 25.8987 21.0946 25.8181 21.5772 25.8181C22.0731 25.8181 22.5356 25.8987 22.9645 26.0601C23.6884 26.3424 24.2782 26.8129 24.734 27.4716C25.2031 28.1169 25.4377 28.8495 25.4377 29.6695V48.4428Z" fill="#79247A"/>
<path d="M38.0874 48.4025C38.0874 48.51 38.0472 48.6041 37.9667 48.6848C37.8863 48.7654 37.7925 48.8058 37.6852 48.8058H35.8555C35.7483 48.8058 35.6544 48.7654 35.574 48.6848C35.507 48.6041 35.4735 48.51 35.4735 48.4025V18.9016C35.4735 18.6462 35.6008 18.5185 35.8555 18.5185H37.6852C37.7925 18.5185 37.8863 18.5588 37.9667 18.6395C38.0472 18.7067 38.0874 18.7941 38.0874 18.9016V48.4025Z" fill="#79247A"/>
<path d="M55.804 45.0753C55.804 45.9222 55.5761 46.6683 55.1204 47.3136C54.6646 47.9454 54.0748 48.4025 53.351 48.6848L53.2102 48.7251V53.6251C53.2102 53.8806 53.0829 54.0083 52.8282 54.0083H51.099C50.9113 54.0083 50.7907 53.9209 50.7371 53.7461C50.7237 53.7327 50.717 53.6923 50.717 53.6251V48.7251C50.717 48.7251 50.6767 48.7117 50.5963 48.6848C50.2344 48.5504 49.8993 48.3622 49.591 48.1202C49.2961 47.8782 49.0347 47.6026 48.8068 47.2934C48.5923 46.9842 48.4248 46.6414 48.3041 46.265C48.1835 45.8886 48.1232 45.4921 48.1232 45.0753V26.1609C48.1232 26.0937 48.1299 26.0533 48.1433 26.0399C48.1835 25.8786 48.2974 25.7979 48.4851 25.7979H50.2344C50.4757 25.7979 50.5963 25.9189 50.5963 26.1609V45.0753C50.5963 45.4383 50.717 45.7542 50.9582 46.0231C51.2129 46.2785 51.5145 46.4196 51.8631 46.4465H52.0641C52.4126 46.4196 52.7075 46.2785 52.9488 46.0231C53.2035 45.7542 53.3309 45.4383 53.3309 45.0753V26.1609C53.3309 26.0937 53.3376 26.0533 53.351 26.0399C53.3912 25.8786 53.5051 25.7979 53.6928 25.7979H55.4421C55.6298 25.7979 55.7437 25.8786 55.7839 26.0399C55.7973 26.0533 55.804 26.0937 55.804 26.1609V45.0753Z" fill="#79247A"/>
<path d="M152.689 28.2782C152.85 28.7083 152.931 29.1654 152.931 29.6494V44.9947C152.931 45.4652 152.85 45.9088 152.689 46.3255C152.502 46.8364 152.213 47.2867 151.825 47.6766C151.436 48.0664 150.987 48.3622 150.477 48.5638C150.25 48.6445 150.022 48.7117 149.794 48.7655C149.566 48.8058 149.331 48.8259 149.09 48.8259H147.723L146.597 48.8058H145.612C145.424 48.8058 145.31 48.7251 145.27 48.5638C145.256 48.5504 145.25 48.51 145.25 48.4428V18.9823C145.25 18.7268 145.37 18.5991 145.612 18.5991H147.361C147.441 18.5991 147.515 18.626 147.582 18.6798C147.649 18.7336 147.696 18.7941 147.723 18.8613V25.7979H149.09C149.613 25.7979 150.075 25.8853 150.477 26.0601C150.987 26.2483 151.436 26.5373 151.825 26.9271C152.213 27.317 152.502 27.7673 152.689 28.2782ZM150.457 29.6494C150.457 29.273 150.323 28.9503 150.055 28.6815C149.787 28.4126 149.465 28.2782 149.09 28.2782H147.723V46.3255H149.09C149.465 46.3255 149.787 46.1978 150.055 45.9424C150.323 45.687 150.457 45.3711 150.457 44.9947V29.6494Z" fill="#79247A"/>
<path d="M166.807 25.7979C167.343 25.7979 167.839 25.8987 168.295 26.1004C168.764 26.302 169.173 26.5776 169.521 26.9271C169.87 27.2767 170.144 27.6867 170.346 28.1572C170.547 28.6277 170.647 29.1251 170.647 29.6494V48.4025C170.647 48.6579 170.527 48.7856 170.285 48.7856H168.536C168.362 48.7856 168.248 48.6982 168.194 48.5235C167.966 48.6041 167.738 48.6714 167.51 48.7251C167.283 48.7655 167.048 48.7856 166.807 48.7856C166.565 48.7856 166.331 48.7655 166.103 48.7251C165.875 48.6714 165.647 48.6041 165.419 48.5235C164.695 48.2412 164.106 47.7841 163.65 47.1523C163.194 46.507 162.966 45.7609 162.966 44.914V36.4247V29.6494C162.966 29.2461 163.027 28.8562 163.147 28.4798C163.268 28.1034 163.435 27.7606 163.65 27.4514C163.864 27.1422 164.119 26.8666 164.414 26.6247C164.722 26.3827 165.057 26.1945 165.419 26.0601C165.821 25.8853 166.284 25.7979 166.807 25.7979ZM166.807 46.2852C167.195 46.2852 167.517 46.1575 167.772 45.9021C168.04 45.6332 168.174 45.3039 168.174 44.914V29.6494C168.174 29.273 168.04 28.9503 167.772 28.6815C167.517 28.4126 167.195 28.2782 166.807 28.2782C166.431 28.2782 166.11 28.4126 165.842 28.6815C165.573 28.9503 165.439 29.273 165.439 29.6494V44.914C165.439 45.3039 165.573 45.6332 165.842 45.9021C166.11 46.1575 166.431 46.2852 166.807 46.2852Z" fill="#79247A"/>
<path d="M188.364 48.4428C188.364 48.4697 188.357 48.4899 188.344 48.5033C188.344 48.5168 188.344 48.5369 188.344 48.5638C188.277 48.7251 188.156 48.8058 187.982 48.8058H186.253C186.065 48.8058 185.944 48.7251 185.891 48.5638C185.891 48.5369 185.884 48.5168 185.871 48.5033C185.871 48.4899 185.871 48.4697 185.871 48.4428V29.6695C185.871 29.2931 185.736 28.9705 185.468 28.7016C185.214 28.4328 184.892 28.2983 184.503 28.2983C184.128 28.2983 183.806 28.4328 183.538 28.7016C183.283 28.9705 183.156 29.2931 183.156 29.6695V48.4227C183.156 48.6781 183.029 48.8058 182.774 48.8058H181.045C180.964 48.8058 180.891 48.7789 180.824 48.7251C180.757 48.6714 180.71 48.6109 180.683 48.5436C180.683 48.5168 180.676 48.4966 180.663 48.4831C180.663 48.4697 180.663 48.4495 180.663 48.4227V29.6695C180.663 28.8226 180.897 28.0832 181.367 27.4514C181.836 26.8062 182.432 26.3424 183.156 26.0601C183.572 25.8987 184.021 25.8181 184.503 25.8181C184.999 25.8181 185.462 25.8987 185.891 26.0601C186.614 26.3424 187.204 26.8129 187.66 27.4716C188.129 28.1169 188.364 28.8495 188.364 29.6695V48.4428Z" fill="#79247A"/>
<path d="M205.739 32.8354C205.658 33.0639 205.551 33.2857 205.417 33.5008C205.283 33.7025 205.135 33.8974 204.975 34.0856C205.135 34.2738 205.283 34.4754 205.417 34.6905C205.551 34.8922 205.658 35.1073 205.739 35.3358C205.913 35.7794 206 36.2298 206 36.6868V48.4227C206 48.6781 205.873 48.8058 205.618 48.8058H203.889C203.808 48.8058 203.735 48.7789 203.668 48.7251C203.601 48.6714 203.554 48.6109 203.527 48.5436C203.527 48.5168 203.52 48.4966 203.507 48.4831C203.507 48.4697 203.507 48.4495 203.507 48.4227V36.6868C203.507 36.3104 203.373 35.9945 203.105 35.7391C202.85 35.4702 202.528 35.3358 202.139 35.3358H200.752V48.4227C200.752 48.6781 200.631 48.8058 200.39 48.8058H198.641C198.48 48.8058 198.366 48.7318 198.299 48.584V18.7C198.366 18.5521 198.48 18.4782 198.641 18.4782H200.39C200.564 18.4782 200.678 18.5655 200.732 18.7403C200.745 18.7537 200.752 18.7941 200.752 18.8613V32.8354H202.139C202.528 32.8354 202.85 32.7077 203.105 32.4523C203.373 32.1968 203.507 31.8809 203.507 31.5045V26.0802C203.507 25.8382 203.634 25.7173 203.889 25.7173H205.618C205.806 25.7173 205.926 25.8046 205.98 25.9794C205.98 25.9928 205.98 26.0063 205.98 26.0197C205.993 26.0332 206 26.0533 206 26.0802V31.5045C206 31.9481 205.913 32.3918 205.739 32.8354Z" fill="#79247A"/>
<path d="M100.398 63.995H80.9314C79.434 63.995 77.7045 64.1227 77.1504 62.3431C76.6862 60.8414 76.4017 59.0544 78.1837 58.0182C79.5164 57.2673 78.9997 56.0359 79.0147 55.0147C79.2169 44.6529 85.2066 38.3156 93.667 33.6528C94.3408 33.2849 95.112 32.8194 95.5387 33.7654C95.9655 34.7115 95.1494 35.0945 94.5055 35.5074C91.3684 37.5348 88.2688 39.6071 85.6932 42.3928C82.1593 46.2222 81.2384 50.8925 81.0812 55.9083C81.0063 58.1608 82.5786 57.7779 83.8963 57.7779C93.6295 57.7779 103.363 57.7779 113.096 57.8229C116.6 57.8154 116.84 57.5902 116.907 58.6414C116.907 59.9779 116.339 59.7902 112.856 59.7902C102.884 59.8728 92.9108 59.8352 82.908 59.8352C82.032 59.8352 81.1635 59.8352 80.2875 59.8953C79.7709 59.8953 79.2992 60.1056 79.2169 60.6462C79.1046 61.4871 79.7035 61.6673 80.3624 61.7049C81.0213 61.7424 81.6053 61.7049 82.2267 61.7049C94.3259 61.7049 106.417 61.7049 118.509 61.7049C119.527 61.7049 121.025 62.0052 121.504 61.0066C121.983 60.008 120.531 59.8427 120.007 59.2721C119.131 58.3335 119.505 57.1397 119.49 56.0659C119.393 46.5826 114.451 40.1628 106.605 35.6276C102.382 33.1873 97.4554 32.4364 93.1728 30.0487C84.6226 25.2883 79.1196 18.6357 79.0746 8.37143C79.0746 7.3803 79.0746 6.56937 78.019 5.83353C76.4841 4.74478 76.6413 2.9352 77.2702 1.41096C77.8992 -0.113282 79.4565 0.00685936 80.8416 0.00685936C93.939 0.00685936 107.031 0.00685936 120.119 0.00685936C121.347 0.00685936 122.732 -0.173331 123.316 1.31337C123.9 2.80007 124.192 4.60211 122.986 5.54068C121.586 6.62192 121.789 7.79327 121.721 9.12229C121.182 19.1237 115.649 25.6862 107.211 30.2439C106.462 30.6569 105.497 31.3252 104.905 30.334C104.314 29.3429 105.444 28.8774 106.155 28.4569C109.776 26.493 112.974 23.8316 115.567 20.6254C118.21 17.2015 119.198 13.3571 119.497 9.15982C119.662 6.90725 119.078 6.15639 116.682 6.15639C106.949 6.29905 97.2159 6.21646 87.4826 6.20896C86.6141 6.20896 85.7381 6.20896 84.8696 6.16391C84.4129 6.16391 83.7241 6.16391 83.7241 5.49563C83.7241 4.30928 84.1734 4.24171 84.7798 4.16662C85.5286 4.07392 86.6516 4.16662 87.7971 4.16662H117.349C118.097 4.16662 118.846 4.21167 119.595 4.16662C120.343 4.12157 121.579 4.46696 121.526 3.10791C121.482 2.08674 120.463 2.25943 119.774 2.25943C106.797 2.25943 93.8317 2.25943 80.879 2.25943C80.295 2.25943 79.5763 2.10927 79.2618 2.80757C79.1878 2.94798 79.1468 3.10346 79.1417 3.26219C79.1367 3.42092 79.1679 3.5787 79.2329 3.72352C79.2979 3.86835 79.395 3.99639 79.5167 4.0979C79.6385 4.19941 79.7818 4.2717 79.9356 4.30929C81.6727 5.00007 81.4331 6.56185 81.2833 7.8233C80.4073 17.2991 88.1864 26.3169 96.7891 29.4405C101.596 31.1825 106.41 32.8419 110.648 35.8378C117.461 40.6508 121.766 46.8229 121.729 55.4953C121.729 56.4414 121.556 57.3574 122.635 58.1158C124.229 59.2421 123.892 61.0141 123.331 62.5534C122.432 63.995 121.182 63.9725 119.849 63.98C113.366 64 106.882 64.005 100.398 63.995Z" fill="#79247A"/>
<path d="M102.24 25.048C101.994 25.2254 101.696 25.3152 101.393 25.303C101.091 25.2907 100.801 25.1772 100.57 24.9804C99.6354 24.26 98.7546 23.472 97.9346 22.6227C97.1859 21.8043 96.5495 20.4903 97.6202 19.6568C98.9154 18.6432 99.1176 20.2124 99.6492 20.9408C100.181 21.6691 100.892 22.4951 102.105 22.022C102.458 21.8987 102.76 21.6617 102.965 21.3479C103.169 21.0341 103.265 20.6613 103.235 20.2875C103.235 18.8909 102.397 18.3503 101.162 18.1175C98.9903 17.6971 97.5228 16.4507 97.2158 14.2131C96.9089 11.9755 98.5111 10.6991 100.166 9.49019C101.716 8.47653 102.157 9.33252 103.108 9.94071C104.606 10.8718 105.669 11.9755 105.467 13.8226C105.377 14.611 104.673 14.6936 104.059 14.3182C103.747 14.1204 103.506 13.8286 103.37 13.4848C103.308 13.2092 103.186 12.9507 103.014 12.7273C102.841 12.5039 102.622 12.3211 102.372 12.1916C102.121 12.0621 101.846 11.9891 101.564 11.9778C101.283 11.9664 101.002 12.0169 100.742 12.1257C100.37 12.191 100.033 12.3901 99.7965 12.6858C99.5595 12.9815 99.438 13.3535 99.4545 13.7325C99.4534 14.306 99.6704 14.8584 100.061 15.277C100.452 15.6955 100.988 15.9488 101.558 15.9851C104.096 16.2404 105.302 17.7722 105.579 20.1148C105.863 22.6302 103.872 23.764 102.247 25.063L102.24 25.048Z" fill="#79247A"/>
<path d="M108.237 52.1014C102.711 52.5144 97.5228 49.7437 92.0048 50.3519C90.0432 50.5772 88.0741 50.8099 86.105 50.9751C85.1991 51.0502 83.8589 51.5833 83.7466 50.0891C83.6642 49.0755 84.7873 48.8652 85.6558 48.715C90.1748 47.8161 94.8289 47.8494 99.3347 48.8126C104.42 50.005 109.695 50.1353 114.833 49.1956C115.784 49.0154 117.079 48.67 117.214 50.0666C117.326 51.1779 116.076 51.1553 115.245 51.2604C112.916 51.5683 110.61 51.8236 108.237 52.1014Z" fill="#79247A"/>
<path d="M101.311 36.2057C101.311 36.8439 100.765 37.0016 100.316 37.0617C100.196 37.0904 100.071 37.0891 99.9517 37.0578C99.8326 37.0265 99.7231 36.9662 99.6327 36.8823C99.5424 36.7984 99.4741 36.6934 99.4339 36.5767C99.3937 36.46 99.3827 36.3352 99.4021 36.2132C99.3898 36.0918 99.4057 35.9691 99.4487 35.8549C99.4917 35.7407 99.5605 35.638 99.6498 35.555C99.7391 35.4721 99.8464 35.411 99.9632 35.3767C100.08 35.3423 100.203 35.3357 100.323 35.3573C100.802 35.3723 101.266 35.59 101.311 36.2057Z" fill="#79247A"/>
<path d="M100.308 37.2119C100.862 37.2119 101.311 36.7614 101.311 36.2057C101.311 35.65 100.862 35.1996 100.308 35.1996C99.754 35.1996 99.3048 35.65 99.3048 36.2057C99.3048 36.7614 99.754 37.2119 100.308 37.2119Z" fill="#79247A"/>
<path d="M100.308 41.5143C100.862 41.5143 101.311 41.0638 101.311 40.5081C101.311 39.9525 100.862 39.502 100.308 39.502C99.754 39.502 99.3048 39.9525 99.3048 40.5081C99.3048 41.0638 99.754 41.5143 100.308 41.5143Z" fill="#79247A"/>
<path d="M100.308 45.8317C100.862 45.8317 101.311 45.3813 101.311 44.8256C101.311 44.2699 100.862 43.8194 100.308 43.8194C99.754 43.8194 99.3048 44.2699 99.3048 44.8256C99.3048 45.3813 99.754 45.8317 100.308 45.8317Z" fill="#79247A"/>
<path d="M100.166 9.49019C101.716 8.47653 102.412 9.41511 103.108 9.94071L100.166 9.49019Z" fill="#79247A"/>
</svg>
